<svg width="80" height="80" viewBox="0 0 80 80" fill="none" xmlns="http://www.w3.org/2000/svg">
<circle cx="40" cy="40" r="40" fill="#FF6B00"/>
<circle cx="40" cy="40" r="40" fill="url(#paint0_linear_892_44)" fill-opacity="0.1"/>
<path fill-rule="evenodd" clip-rule="evenodd" d="M39.2931 27.513C39.2931 21.7178 44.0854 17.0142 49.99 17.0142C55.8946 17.0142 60.687 21.7178 60.687 27.513C60.687 33.3083 55.8946 38.0119 49.99 38.0119C44.0854 38.0119 39.2931 33.3083 39.2931 27.513ZM49.99 20.6195C46.104 20.6195 42.9664 23.699 42.9664 27.513C42.9664 31.3271 46.104 34.4066 49.99 34.4066C53.876 34.4066 57.0136 31.3271 57.0136 27.513C57.0136 23.699 53.876 20.6195 49.99 20.6195Z" fill="#12141C"/>
<path fill-rule="evenodd" clip-rule="evenodd" d="M17.1423 59.7524V36.5806H34.3497L47.9305 41.5575C50.2635 42.4164 51.8267 44.6257 51.8267 47.0795V47.4509H56.6352C60.1033 47.4509 62.902 50.1978 62.902 53.6016V55.5026L45.5534 60.8237L29.6759 56.5048V59.7524H17.1423ZM26.0026 40.1859H20.8157V56.1471H26.0026V40.1859ZM33.6889 40.1859H29.6759V52.7979L45.3934 57.0253L45.4934 56.6671L45.6056 57.0218L59.1613 52.8935L58.9693 52.5048C58.5556 51.6674 57.6531 51.0562 56.6352 51.0562H44.7846C43.6261 51.0562 42.4924 50.8877 41.404 50.5316L36.4911 48.9311L37.6484 45.5054L42.5606 47.1057C42.6818 47.1454 42.8564 47.1743 43.0408 47.1981C43.2341 47.223 43.4685 47.2456 43.7259 47.2662C44.2411 47.3075 44.8622 47.3417 45.4592 47.369C46.0568 47.3962 46.6333 47.4167 47.06 47.4303C47.2735 47.4371 47.4497 47.4422 47.5726 47.4456L47.715 47.4495L47.7655 47.4508L48.1533 47.4603V47.0795C48.1533 46.1206 47.5466 45.2655 46.6475 44.9281L33.6889 40.1859Z" fill="#12141C"/>
<defs>
<linearGradient id="paint0_linear_892_44" x1="40" y1="0" x2="40" y2="80" gradientUnits="userSpaceOnUse">
<stop stop-color="white"/>
<stop offset="1" stop-color="white" stop-opacity="0"/>
</linearGradient>
</defs>
</svg>
