<svg width="80" height="80" viewBox="0 0 80 80" fill="none" xmlns="http://www.w3.org/2000/svg">
<circle cx="40" cy="40" r="40" fill="#FF6B00"/>
<circle cx="40" cy="40" r="40" fill="url(#paint0_linear_892_40)" fill-opacity="0.1"/>
<g clip-path="url(#clip0_892_40)">
<path fill-rule="evenodd" clip-rule="evenodd" d="M24.9462 28.7966C24.9462 20.5446 31.6967 14.2856 39.9732 14.2856C48.2498 14.2856 55.0003 20.5446 55.0003 28.7966C55.0003 33.373 52.8366 37.7973 50.3309 41.4107H56.4585L64.7087 59.9999H15.2378L23.4879 41.4107H29.6156C27.1099 37.7973 24.9462 33.373 24.9462 28.7966ZM32.7387 45.3941H26.208L21.4936 56.0165H58.4529L53.7385 45.3941H47.2078C45.8186 46.9834 44.482 48.3156 43.4367 49.297C42.8057 49.8893 42.2777 50.3569 41.904 50.6791C41.7171 50.8403 41.5685 50.9653 41.4647 51.0516C41.4128 51.0948 41.372 51.1283 41.3433 51.1518L41.3092 51.1795L41.2991 51.1877L41.2958 51.1904L41.2946 51.1914C41.2941 51.1918 41.2936 51.1921 39.9732 49.6621C38.6528 51.1921 38.6524 51.1918 38.6519 51.1914L38.6507 51.1904L38.6474 51.1877L38.6373 51.1795L38.6032 51.1518C38.5744 51.1283 38.5337 51.0948 38.4818 51.0516C38.378 50.9653 38.2294 50.8403 38.0425 50.6791C37.6688 50.3569 37.1408 49.8893 36.5098 49.297C35.4645 48.3156 34.1278 46.9834 32.7387 45.3941ZM39.9732 49.6621L38.6528 51.1921L39.9732 52.2547L41.2936 51.1921L39.9732 49.6621ZM39.9732 46.984C40.1549 46.819 40.3516 46.6376 40.5612 46.4409C41.7326 45.3411 43.2913 43.7727 44.8449 41.8974C48.0251 38.0587 50.8752 33.3 50.8752 28.7966C50.8752 22.7892 46.0181 18.269 39.9732 18.269C33.9284 18.269 29.0713 22.7892 29.0713 28.7966C29.0713 33.3 31.9214 38.0587 35.1016 41.8974C36.6552 43.7727 38.2139 45.3411 39.3853 46.4409C39.5948 46.6376 39.7916 46.819 39.9732 46.984ZM39.9732 28.7018C39.9472 28.7018 39.9222 28.7118 39.9038 28.7295C39.8854 28.7473 39.875 28.7715 39.875 28.7966C39.875 28.8218 39.8854 28.8459 39.9038 28.8637C39.9222 28.8815 39.9472 28.8915 39.9732 28.8915C39.9993 28.8915 40.0243 28.8815 40.0427 28.8637C40.0611 28.8459 40.0715 28.8218 40.0715 28.7966C40.0715 28.7715 40.0611 28.7473 40.0427 28.7295C40.0243 28.7118 39.9993 28.7018 39.9732 28.7018ZM36.9869 25.9129C37.7789 25.148 38.8532 24.7184 39.9732 24.7184C41.0933 24.7184 42.1675 25.148 42.9596 25.9129C43.7516 26.6777 44.1965 27.715 44.1965 28.7966C44.1965 29.8782 43.7516 30.9155 42.9596 31.6804C42.1675 32.4452 41.0933 32.8749 39.9732 32.8749C38.8532 32.8749 37.7789 32.4452 36.9869 31.6804C36.1949 30.9155 35.75 29.8782 35.75 28.7966C35.75 27.715 36.1949 26.6777 36.9869 25.9129Z" fill="#12141C"/>
</g>
<defs>
<linearGradient id="paint0_linear_892_40" x1="40" y1="0" x2="40" y2="80" gradientUnits="userSpaceOnUse">
<stop stop-color="white"/>
<stop offset="1" stop-color="white" stop-opacity="0"/>
</linearGradient>
<clipPath id="clip0_892_40">
<rect width="51.4286" height="51.4286" fill="white" transform="translate(14.2856 14.2856)"/>
</clipPath>
</defs>
</svg>
