<svg width="80" height="80" viewBox="0 0 80 80" fill="none" xmlns="http://www.w3.org/2000/svg">
<circle cx="40" cy="40" r="40" fill="#FF6B00"/>
<circle cx="40" cy="40" r="40" fill="url(#paint0_linear_892_32)" fill-opacity="0.1"/>
<path d="M42.0935 18.5713V22.9064C51.5239 24.0652 58.2047 32.6281 57.0447 42.0494C56.0566 49.8611 49.9128 56.0632 42.0935 56.986V61.2782C53.9084 60.0979 62.5011 49.625 61.3196 37.8216C60.3529 27.6277 52.2543 19.5799 42.0935 18.5713ZM37.7971 18.6357C33.6082 19.0434 29.6126 20.653 26.3474 23.357L29.4193 26.5332C31.8252 24.6018 34.7253 23.357 37.7971 22.9278V18.6357ZM23.3185 26.383C20.6325 29.6393 18.9796 33.6219 18.571 37.8216H22.8674C23.2755 34.7742 24.4785 31.877 26.3904 29.4519L23.3185 26.383ZM18.5925 42.1137C19.0222 46.3201 20.6762 50.2903 23.34 53.5523L26.3904 50.4834C24.4934 48.0575 23.284 45.1667 22.8889 42.1137H18.5925ZM29.4193 53.6382L26.3474 56.5783C29.6014 59.2881 33.5852 60.9757 37.7971 61.4284V57.1363C34.7412 56.7415 31.8476 55.5333 29.4193 53.6382ZM41.0194 29.2373V40.5042L50.6861 46.2342L49.075 48.8739L37.7971 42.1137V29.2373H41.0194Z" fill="#12141C"/>
<defs>
<linearGradient id="paint0_linear_892_32" x1="40" y1="0" x2="40" y2="80" gradientUnits="userSpaceOnUse">
<stop stop-color="white"/>
<stop offset="1" stop-color="white" stop-opacity="0"/>
</linearGradient>
</defs>
</svg>
