<svg width="22" height="24" viewBox="0 0 22 24" fill="none" xmlns="http://www.w3.org/2000/svg">
<g clip-path="url(#clip0_953_2)">
<path fill-rule="evenodd" clip-rule="evenodd" d="M16.8118 12.455L8.41654 4.05979L9.79066 2.68566L19.5602 12.4552L18.1861 13.8293L18.1859 13.8291L9.7691 22.2459L8.39498 20.8718L16.8118 12.455Z" fill="#FF6B00"/>
<path d="M16.8118 12.455L17.1653 12.8086L17.5189 12.455L17.1653 12.1015L16.8118 12.455ZM8.41654 4.05979L8.06298 3.70624L7.70943 4.05979L8.06298 4.41334L8.41654 4.05979ZM9.79066 2.68566L10.1442 2.33211L9.79066 1.97856L9.43711 2.33211L9.79066 2.68566ZM19.5602 12.4552L19.9137 12.8087L20.2673 12.4552L19.9137 12.1016L19.5602 12.4552ZM18.1861 13.8293L17.8325 14.1829L18.1861 14.5364L18.5396 14.1829L18.1861 13.8293ZM18.1859 13.8291L18.5394 13.4756L18.1859 13.122L17.8323 13.4756L18.1859 13.8291ZM9.7691 22.2459L9.41555 22.5995L9.7691 22.953L10.1227 22.5995L9.7691 22.2459ZM8.39498 20.8718L8.04143 20.5182L7.68787 20.8718L8.04143 21.2253L8.39498 20.8718ZM17.1653 12.1015L8.77009 3.70624L8.06298 4.41334L16.4582 12.8086L17.1653 12.1015ZM8.77009 4.41334L10.1442 3.03922L9.43711 2.33211L8.06298 3.70624L8.77009 4.41334ZM9.43711 3.03922L19.2066 12.8087L19.9137 12.1016L10.1442 2.33211L9.43711 3.03922ZM19.2066 12.1016L17.8325 13.4758L18.5396 14.1829L19.9137 12.8087L19.2066 12.1016ZM18.5396 13.4758L18.5394 13.4756L17.8323 14.1827L17.8325 14.1829L18.5396 13.4758ZM17.8323 13.4756L9.41555 21.8924L10.1227 22.5995L18.5394 14.1827L17.8323 13.4756ZM10.1227 21.8924L8.74853 20.5182L8.04143 21.2253L9.41555 22.5995L10.1227 21.8924ZM8.74853 21.2253L17.1653 12.8086L16.4582 12.1015L8.04143 20.5182L8.74853 21.2253Z" fill="#FF6B00"/>
<rect y="11.5383" width="18.4615" height="1.84615" fill="#FF6B00" stroke="#FF6B00"/>
</g>
<defs>
<clipPath id="clip0_953_2">
<rect width="22" height="24" fill="white"/>
</clipPath>
</defs>
</svg>
