<svg width="40" height="40" viewBox="0 0 40 40" fill="none" xmlns="http://www.w3.org/2000/svg">
<g clip-path="url(#clip0_894_116)">
<path d="M26.7339 15.5105L26.7339 15.3086H26.5319V15.5105H26.7339Z" fill="#FF6B00"/>
<path d="M13.2659 19.9999H13.4679V20.2019H13.2659V19.9999Z" fill="#FF6B00"/>
<path d="M13.2659 24.2872H13.4679V24.4892H13.2659L13.2659 24.2872Z" fill="#FF6B00"/>
<path d="M26.5319 11.2233V11.0213H26.7339V11.2233H26.5319Z" fill="#FF6B00"/>
<path fill-rule="evenodd" clip-rule="evenodd" d="M5.83759 5.83302C9.70498 1.9634 14.466 0 19.9999 0C25.4818 0 30.2298 1.96105 34.1202 5.83138C38.0233 9.70336 39.9998 14.4686 39.9998 19.9999C39.9998 25.479 38.0257 30.2292 34.124 34.1264C30.2313 38.0236 25.4835 39.9998 19.9999 39.9998C14.4641 39.9998 9.70093 38.0231 5.83122 34.12C1.96083 30.2274 0 25.4795 0 19.9999C0 14.4682 1.96353 9.70263 5.83759 5.83302ZM22.2708 35.7512C25.6975 35.3029 28.6538 33.8247 31.2359 31.238C34.3823 28.0939 35.9145 24.4108 35.9145 19.9999C35.9145 15.5403 34.385 11.8477 31.242 8.72972C28.0999 5.60589 24.4192 4.08528 19.9999 4.08528C15.5342 4.08528 11.8417 5.60315 8.72804 8.72355C5.60318 11.8417 4.08528 15.5341 4.08528 19.9999C4.08528 24.417 5.60594 28.1 8.72982 31.2444C11.299 33.8317 14.2669 35.3121 17.7296 35.7558L17.9573 35.7849V24.2872H13.4679V20.2019H17.9573V17.3737C17.9573 15.6403 18.5023 14.19 19.5797 13.0018C20.6544 11.8122 21.9892 11.2233 23.5981 11.2233H26.5319V15.3086H23.5939C23.3903 15.3082 23.1886 15.348 23.0004 15.4257C22.8122 15.5034 22.6412 15.6174 22.4971 15.7613C22.353 15.9051 22.2387 16.076 22.1607 16.2641C22.0827 16.4522 22.0425 16.6538 22.0425 16.8574V20.2019H26.5319V24.2872H22.0425V35.7811L22.2708 35.7512Z" fill="#FF6B00"/>
</g>
<defs>
<clipPath id="clip0_894_116">
<rect width="39.9998" height="39.9998" fill="white"/>
</clipPath>
</defs>
</svg>
