<svg width="28" height="28" viewBox="0 0 28 28" fill="none" xmlns="http://www.w3.org/2000/svg">
<g clip-path="url(#clip0_894_134)">
<path d="M14 0C6.26803 0 0 6.26803 0 14C0 21.732 6.26803 28 14 28C21.7319 28 28 21.732 28 14C28 6.26803 21.7319 0 14 0ZM14 3.04199C20.0519 3.04199 24.9563 7.94957 24.9563 14C24.9563 20.0504 20.0519 24.9563 14 24.9563C7.94803 24.9563 3.04369 20.0504 3.04369 14C3.04372 7.94957 7.94803 3.04199 14 3.04199ZM19.3645 7.35205L11.2502 15.468L8.6184 12.8362L6.03612 15.4168L8.66796 18.0486L11.2673 20.6479L13.8479 18.0657L21.9639 9.95141L19.3645 7.35205V7.35205Z" fill="#FF6B00"/>
</g>
<defs>
<clipPath id="clip0_894_134">
<rect width="28" height="28" fill="white"/>
</clipPath>
</defs>
</svg>
