<svg width="80" height="80" viewBox="0 0 80 80" fill="none" xmlns="http://www.w3.org/2000/svg">
<circle cx="40" cy="40" r="40" fill="#FF6B00"/>
<circle cx="40" cy="40" r="40" fill="url(#paint0_linear_892_48)" fill-opacity="0.1"/>
<g clip-path="url(#clip0_892_48)">
<path d="M14.2852 25.7144V28.8312H45.3863V52.2079H35.3096C34.5795 49.5289 32.0488 47.5325 29.0173 47.5325C25.9858 47.5325 23.4551 49.5289 22.725 52.2079H20.8328V44.4157H17.559V55.3247H22.725C23.4551 58.0037 25.9858 60.0001 29.0173 60.0001C32.0488 60.0001 34.5795 58.0037 35.3096 55.3247H48.9155C49.6456 58.0037 52.1762 60.0001 55.2078 60.0001C58.2393 60.0001 60.77 58.0037 61.5 55.3247H66.6661V42.6141L66.563 42.3694L63.2892 33.0188L62.934 31.9481H48.6602V25.7144H14.2852ZM15.9221 31.9481V35.065H30.6542V31.9481H15.9221ZM48.6602 35.065H60.5785L63.3923 43.052V52.2079H61.5C60.77 49.5289 58.2393 47.5325 55.2078 47.5325C52.1762 47.5325 49.6456 49.5289 48.9155 52.2079H48.6602V35.065ZM17.559 38.1819V41.2988H27.3804V38.1819H17.559ZM29.0173 50.6494C30.8457 50.6494 32.2911 52.0255 32.2911 53.7663C32.2911 55.5071 30.8457 56.8832 29.0173 56.8832C27.1889 56.8832 25.7435 55.5071 25.7435 53.7663C25.7435 52.0255 27.1889 50.6494 29.0173 50.6494ZM55.2078 50.6494C57.0362 50.6494 58.4816 52.0255 58.4816 53.7663C58.4816 55.5071 57.0362 56.8832 55.2078 56.8832C53.3794 56.8832 51.934 55.5071 51.934 53.7663C51.934 52.0255 53.3794 50.6494 55.2078 50.6494Z" fill="#12141C"/>
</g>
<defs>
<linearGradient id="paint0_linear_892_48" x1="40" y1="0" x2="40" y2="80" gradientUnits="userSpaceOnUse">
<stop stop-color="white"/>
<stop offset="1" stop-color="white" stop-opacity="0"/>
</linearGradient>
<clipPath id="clip0_892_48">
<rect width="52.381" height="51.4286" fill="white" transform="translate(14.2856 14.2856)"/>
</clipPath>
</defs>
</svg>
