<svg width="120" height="120" viewBox="0 0 120 120" fill="none" xmlns="http://www.w3.org/2000/svg">
<circle cx="60" cy="60" r="60" fill="#FFE551"/>
<circle cx="60" cy="60" r="60" fill="url(#paint0_linear_893_59)" fill-opacity="0.1"/>
<path fill-rule="evenodd" clip-rule="evenodd" d="M60.2221 26.0112C41.873 26.0112 26.998 41.0794 26.998 59.6668C26.998 78.2542 41.873 93.3223 60.2221 93.3223C78.5712 93.3223 93.4462 78.2542 93.4462 59.6668C93.4462 41.0794 78.5712 26.0112 60.2221 26.0112ZM53.9939 33.5733C60.4049 31.9805 67.1716 32.8625 72.9756 36.0476C78.7796 39.2326 83.2051 44.4925 85.3898 50.8023C87.5745 57.1121 87.3619 64.0198 84.7935 70.1795C83.4548 73.3891 81.5138 76.305 79.0782 78.7653C74.4036 83.4864 68.1614 86.2755 61.5677 86.589C54.974 86.9026 48.5013 84.7181 43.4107 80.4614C38.3201 76.2046 34.9763 70.1805 34.0309 63.5628C33.0855 56.945 34.6062 50.2078 38.2967 44.6638C41.9871 39.1198 47.583 35.1662 53.9939 33.5733Z" fill="#12141C"/>
<path d="M60.2227 77.0002C63.9099 77.0002 67.4462 75.5164 70.0534 72.8753C72.6607 70.2341 74.1255 66.652 74.1255 62.9168H46.3199C46.3199 66.652 47.7847 70.2341 50.3919 72.8753C52.9992 75.5164 56.5355 77.0002 60.2227 77.0002V77.0002ZM53.5062 55.9147L56.2448 52.5856L48.4588 46.0132L40.6729 52.5856L43.4114 55.9147L48.4588 51.6538L53.5062 55.9147ZM64.2006 52.5856L66.9392 55.9147L71.9866 51.6538L77.034 55.9147L79.7725 52.5856L71.9866 46.0132L64.2006 52.5856Z" fill="#12141C"/>
<defs>
<linearGradient id="paint0_linear_893_59" x1="60" y1="0" x2="60" y2="120" gradientUnits="userSpaceOnUse">
<stop stop-color="white"/>
<stop offset="1" stop-color="white" stop-opacity="0"/>
</linearGradient>
</defs>
</svg>
