<svg width="80" height="80" viewBox="0 0 80 80" fill="none" xmlns="http://www.w3.org/2000/svg">
<circle cx="40" cy="40" r="40" fill="#FF6B00"/>
<circle cx="40" cy="40" r="40" fill="url(#paint0_linear_892_27)" fill-opacity="0.1"/>
<g clip-path="url(#clip0_892_27)">
<path fill-rule="evenodd" clip-rule="evenodd" d="M15.7148 20.8413V24.8628H21.9685L28.0446 52.6726H28.1065V53.379H56.2571V52.9973L61.0737 31.7785L61.7438 29.6155H27.0198L25.7381 23.7443L25.7378 23.7431L25.1257 20.8413H15.7148ZM56.4114 33.637H27.8985L31.3323 49.3575H53.0718L56.5896 33.8603L56.4114 33.8198V33.637Z" fill="#12141C"/>
<path fill-rule="evenodd" clip-rule="evenodd" d="M31.7971 56.448C32.8255 55.4196 34.2204 54.8418 35.6748 54.8418C37.1292 54.8418 38.5241 55.4196 39.5525 56.448C40.5809 57.4764 41.1587 58.8713 41.1587 60.3257C41.1587 61.7801 40.5809 63.1749 39.5525 64.2034C38.5241 65.2318 37.1292 65.8095 35.6748 65.8095C34.2204 65.8095 32.8255 65.2318 31.7971 64.2034C30.7687 63.1749 30.1909 61.7801 30.1909 60.3257C30.1909 58.8713 30.7687 57.4764 31.7971 56.448ZM35.6748 58.4977C35.19 58.4977 34.725 58.6903 34.3822 59.0331C34.0394 59.3759 33.8468 59.8409 33.8468 60.3257C33.8468 60.8105 34.0394 61.2754 34.3822 61.6182C34.725 61.961 35.19 62.1536 35.6748 62.1536C36.1596 62.1536 36.6245 61.961 36.9674 61.6182C37.3102 61.2754 37.5028 60.8105 37.5028 60.3257C37.5028 59.8409 37.3102 59.3759 36.9674 59.0331C36.6245 58.6903 36.1596 58.4977 35.6748 58.4977ZM48.4705 58.4977C47.9857 58.4977 47.5208 58.6903 47.1779 59.0331C46.8351 59.3759 46.6425 59.8409 46.6425 60.3257C46.6425 60.8105 46.8351 61.2754 47.1779 61.6182C47.5208 61.961 47.9857 62.1536 48.4705 62.1536C48.9553 62.1536 49.4203 61.961 49.7631 61.6182C50.1059 61.2754 50.2985 60.8105 50.2985 60.3257C50.2985 59.8409 50.1059 59.3759 49.7631 59.0331C49.4203 58.6903 48.9553 58.4977 48.4705 58.4977ZM44.5928 56.448C45.6212 55.4196 47.0161 54.8418 48.4705 54.8418C49.9249 54.8418 51.3198 55.4196 52.3482 56.448C53.3766 57.4764 53.9544 58.8713 53.9544 60.3257C53.9544 61.7801 53.3766 63.1749 52.3482 64.2034C51.3198 65.2318 49.9249 65.8095 48.4705 65.8095C47.0161 65.8095 45.6212 65.2318 44.5928 64.2034C43.5644 63.1749 42.9866 61.7801 42.9866 60.3257C42.9866 58.8713 43.5644 57.4764 44.5928 56.448Z" fill="#12141C"/>
</g>
<defs>
<linearGradient id="paint0_linear_892_27" x1="40" y1="0" x2="40" y2="80" gradientUnits="userSpaceOnUse">
<stop stop-color="white"/>
<stop offset="1" stop-color="white" stop-opacity="0"/>
</linearGradient>
<clipPath id="clip0_892_27">
<rect width="51.4286" height="51.4286" fill="white" transform="translate(14.2852 14.2856)"/>
</clipPath>
</defs>
</svg>
