<svg width="36" height="36" viewBox="0 0 36 36" fill="none" xmlns="http://www.w3.org/2000/svg">
<g clip-path="url(#clip0_894_117)">
<path d="M25.9766 0.115499C27.8036 0.199499 29.0666 0.467998 30.2336 0.920996C31.3401 1.33471 32.3419 1.98718 33.1676 2.83199C34.0124 3.65771 34.6649 4.65946 35.0786 5.76597C35.5316 6.93447 35.8001 8.19596 35.8841 10.023C35.9876 12.2879 35.9996 13.0859 35.9996 17.9999C35.9996 22.9139 35.9876 23.7119 35.8841 25.9769C35.8001 27.8039 35.5316 29.0669 35.0786 30.2354C34.6647 31.3413 34.0122 32.3425 33.1676 33.1678C32.3419 34.0127 31.3401 34.6652 30.2336 35.0788C29.0651 35.5318 27.8036 35.8003 25.9766 35.8843C23.7116 35.9878 22.9151 35.9998 17.9997 35.9998C13.0842 35.9998 12.2862 35.9878 10.0227 35.8843C8.19572 35.8003 6.93272 35.5318 5.76423 35.0788C4.65823 34.665 3.657 34.0125 2.83174 33.1678C1.98693 32.3421 1.33447 31.3404 0.920751 30.2339C0.467754 29.0654 0.199255 27.8039 0.115255 25.9769C0.0117558 23.7149 -0.000244141 22.9169 -0.000244141 17.9999C-0.000244141 13.0844 0.0117558 12.2849 0.115255 10.023C0.199255 8.19596 0.467754 6.93297 0.920751 5.76597C1.33447 4.65946 1.98693 3.65771 2.83174 2.83199C3.65703 1.98736 4.65825 1.3349 5.76423 0.920996C6.93422 0.467998 8.19572 0.199499 10.0227 0.115499C12.2847 0.012 13.0827 0 17.9997 0C22.9151 0 23.7146 0.012 25.9766 0.115499ZM17.9997 4.00048C13.1397 4.00048 12.3957 4.01098 10.2042 4.11148C8.81371 4.17448 7.97972 4.35148 7.21322 4.64998C6.62489 4.86331 6.09328 5.20865 5.65923 5.65947C5.20745 6.09273 4.86195 6.62458 4.64973 7.21346C4.35273 7.97846 4.17424 8.81396 4.11124 10.2045C4.01074 12.3959 4.00024 13.1399 4.00024 17.9999C4.00024 22.8599 4.01074 23.6039 4.11124 25.7954C4.17424 27.1859 4.35123 28.0199 4.64973 28.7849C4.90473 29.4389 5.17473 29.8544 5.65923 30.3404C6.14523 30.8263 6.56072 31.0963 7.21322 31.3498C7.97822 31.6468 8.81371 31.8253 10.2042 31.8883C12.3972 31.9888 13.1412 31.9993 17.9997 31.9993C22.8596 31.9993 23.6021 31.9888 25.7951 31.8883C27.1856 31.8253 28.0196 31.6483 28.7861 31.3498C29.3744 31.1365 29.9061 30.7912 30.3401 30.3404C30.8261 29.8544 31.0961 29.4389 31.3496 28.7864C31.6466 28.0214 31.8251 27.1859 31.8881 25.7954C31.9886 23.6024 31.9991 22.8584 31.9991 17.9999C31.9991 13.1414 31.9886 12.3974 31.8881 10.2045C31.8251 8.81396 31.6481 7.97996 31.3496 7.21496C31.1375 6.62559 30.792 6.09323 30.3401 5.65947C29.9064 5.20754 29.374 4.86204 28.7846 4.64998C28.0196 4.35298 27.1841 4.17448 25.7936 4.11148C23.6021 4.01098 22.8596 4.00048 17.9997 4.00048ZM17.9997 27.3329C15.5244 27.3329 13.1505 26.3496 11.4003 24.5993C9.65 22.849 8.66671 20.4752 8.66671 17.9999C8.66671 15.5247 9.65 13.1508 11.4003 11.4005C13.1505 9.65025 15.5244 8.66696 17.9997 8.66696C20.4749 8.66696 22.8488 9.65025 24.5991 11.4005C26.3493 13.1508 27.3326 15.5247 27.3326 17.9999C27.3326 20.4752 26.3493 22.849 24.5991 24.5993C22.8488 26.3496 20.4749 27.3329 17.9997 27.3329ZM17.9997 23.3339C19.4143 23.3339 20.771 22.7719 21.7714 21.7716C22.7717 20.7713 23.3336 19.4146 23.3336 17.9999C23.3336 16.5853 22.7717 15.2285 21.7714 14.2282C20.771 13.2279 19.4143 12.6659 17.9997 12.6659C16.585 12.6659 15.2283 13.2279 14.228 14.2282C13.2277 15.2285 12.6657 16.5853 12.6657 17.9999C12.6657 19.4146 13.2277 20.7713 14.228 21.7716C15.2283 22.7719 16.585 23.3339 17.9997 23.3339ZM27.3326 10.6664C26.8021 10.6664 26.2934 10.4557 25.9182 10.0806C25.5431 9.70547 25.3324 9.1967 25.3324 8.66621C25.3324 8.13571 25.5431 7.62694 25.9182 7.25182C26.2934 6.87671 26.8021 6.66597 27.3326 6.66597C27.8631 6.66597 28.3719 6.87671 28.747 7.25182C29.1221 7.62694 29.3329 8.13571 29.3329 8.66621C29.3329 9.1967 29.1221 9.70547 28.747 10.0806C28.3719 10.4557 27.8631 10.6664 27.3326 10.6664Z" fill="#FF6B00"/>
</g>
<defs>
<clipPath id="clip0_894_117">
<rect width="35.9998" height="35.9998" fill="white" transform="translate(-0.000244141)"/>
</clipPath>
</defs>
</svg>
