<svg width="217" height="41" viewBox="0 0 217 41" fill="none" xmlns="http://www.w3.org/2000/svg">
<path d="M22.0834 18.1545L27.9112 15.6666C27.9166 15.8111 27.9193 15.9564 27.9193 16.1023C27.9193 22.457 22.6975 27.6214 16.272 27.6214C9.84662 27.6214 4.62479 22.457 4.62479 16.1023C4.62479 9.74762 9.84662 4.58324 16.272 4.58324C19.4658 4.58324 22.3563 5.85795 24.4602 7.91994L28.9333 5.99853C25.9576 2.34317 21.3896 0 16.272 0C7.28783 0 0 7.2076 0 16.093C0 24.9783 7.28783 32.1859 16.272 32.1859C25.2563 32.1859 32.5441 24.9783 32.5441 16.093C32.5441 15.3022 32.4854 14.5237 32.3725 13.7621L38.8753 10.986L32.8265 31.7452L56.5647 21.6114L57.9675 24.8165L65.2805 15.5174L53.4037 14.3889L54.7073 17.3674L39.9788 23.6549L46.0438 2.93259L20.3391 13.9059C19.7806 13.5845 19.1313 13.4004 18.4386 13.4004C16.3485 13.4004 14.6541 15.0761 14.6541 17.1433C14.6541 19.2104 16.3485 20.8861 18.4386 20.8861C20.1744 20.8861 21.6373 19.7303 22.0834 18.1545Z" fill="#12141C"/>
<path d="M98.9818 14.8218H111.289V15.7927C111.289 18.0018 111.018 19.9717 110.492 21.6743C109.98 23.2502 109.112 24.7277 107.888 26.1066C105.128 29.1882 101.6 30.7219 97.3315 30.7219C93.1628 30.7219 89.5917 29.2303 86.6182 26.2614C83.6446 23.2784 82.165 19.6903 82.165 15.4972C82.165 11.2196 83.6731 7.60343 86.7036 4.6204C89.7198 1.63737 93.4047 0.13179 97.744 0.13179C100.077 0.13179 102.24 0.596117 104.26 1.53889C106.195 2.48162 108.087 4.00129 109.951 6.1119L106.75 9.15123C104.317 5.94306 101.344 4.32491 97.8294 4.32491C94.6852 4.32491 92.0388 5.3943 89.9047 7.54713C87.7706 9.65778 86.7036 12.3031 86.7036 15.4831C86.7036 18.7616 87.8987 21.4632 90.2746 23.5879C92.4941 25.5578 94.9128 26.5428 97.5022 26.5428C99.7074 26.5428 101.699 25.8111 103.463 24.3337C105.228 22.8422 106.209 21.0692 106.409 18.9868H98.9818V14.8218Z" fill="#12141C"/>
<path fill-rule="evenodd" clip-rule="evenodd" d="M132.12 21.8854H118.661C118.775 23.405 119.273 24.6292 120.169 25.5297C121.051 26.4162 122.19 26.8665 123.584 26.8665C124.665 26.8665 125.561 26.6132 126.259 26.1066C126.956 25.6001 127.738 24.6573 128.635 23.2784L132.305 25.3046C131.736 26.2614 131.139 27.0775 130.513 27.7529C129.887 28.4283 129.204 28.9912 128.492 29.4273C127.767 29.8635 126.998 30.1872 126.159 30.3842C125.32 30.5812 124.423 30.6937 123.442 30.6937C120.639 30.6937 118.391 29.8073 116.684 28.0202C114.99 26.2192 114.137 23.8412 114.137 20.8863C114.137 17.9455 114.962 15.5675 116.612 13.7524C118.277 11.9654 120.468 11.0649 123.214 11.0649C125.974 11.0649 128.165 11.9373 129.773 13.682C131.366 15.4127 132.163 17.8048 132.163 20.8723L132.12 21.8854ZM127.653 18.3676C127.055 16.0741 125.59 14.9343 123.271 14.9343C122.744 14.9343 122.246 15.0188 121.791 15.1736C121.322 15.3283 120.909 15.5675 120.525 15.863C120.141 16.1585 119.828 16.5244 119.557 16.9465C119.287 17.3686 119.088 17.847 118.946 18.3817H127.653V18.3676Z" fill="#12141C"/>
<path d="M141.176 30.159V15.5816H144.548V11.5855H141.176V4.77519H136.837V11.5855H134.987V15.5816H136.837V30.159H141.176Z" fill="#12141C"/>
<path d="M153.453 26.1207H164.621V30.159H144.845L157.024 15.5816H147.434V11.5855H165.603L153.453 26.1207Z" fill="#12141C"/>
<path d="M173.044 30.1731V11.5855H168.705V30.1731H173.044Z" fill="#12141C"/>
<path d="M168.861 1.90473C168.306 2.45349 168.036 3.10074 168.036 3.8465C168.036 4.64854 168.32 5.30987 168.861 5.85863C169.416 6.40739 170.085 6.67475 170.867 6.67475C171.65 6.67475 172.318 6.40739 172.859 5.85863C173.414 5.30987 173.684 4.64854 173.684 3.87464C173.684 3.10074 173.414 2.43941 172.859 1.90473C172.304 1.35597 171.635 1.08861 170.853 1.08861C170.07 1.08861 169.416 1.35597 168.861 1.90473Z" fill="#12141C"/>
<path d="M178.173 11.5855H182.527V13.3021C184.049 11.8106 185.757 11.0649 187.663 11.0649C189.854 11.0649 191.547 11.7403 192.771 13.1051C193.824 14.259 194.35 16.1585 194.35 18.7757V30.159H189.996V19.7747C189.996 17.9455 189.74 16.6791 189.228 15.9756C188.73 15.258 187.82 14.9062 186.482 14.9062C185.045 14.9062 184.021 15.3705 183.409 16.3133C182.812 17.242 182.527 18.8601 182.527 21.1818V30.145H178.173V11.5855Z" fill="#12141C"/>
<path fill-rule="evenodd" clip-rule="evenodd" d="M216.915 32.0445C216.972 31.3691 217 30.5952 217 29.7228H216.986V11.5855H212.646V13.6961C211.081 11.9513 209.104 11.0789 206.742 11.0789C204.039 11.0789 201.876 12.078 200.226 14.0901C198.703 15.9897 197.935 18.2832 197.935 20.9989C197.935 23.7849 198.76 26.1066 200.411 27.964C202.047 29.7932 204.138 30.7078 206.699 30.7078C208.947 30.7078 210.939 29.8354 212.661 28.0906V30.6797C212.661 34.5351 211.067 36.4628 207.894 36.4628C206.159 36.4628 204.85 35.8859 203.953 34.7321C203.569 34.2255 203.299 33.522 203.128 32.6074H198.775C199.031 35.0276 199.984 36.9271 201.663 38.3061C203.285 39.6428 205.348 40.3041 207.852 40.3041C210.825 40.3041 213.159 39.3333 214.852 37.4055C215.762 36.4065 216.36 35.1964 216.673 33.8034C216.772 33.2968 216.858 32.7059 216.915 32.0445ZM211.366 16.5807C212.348 17.6641 212.831 19.1134 212.831 20.9145C212.831 22.603 212.39 23.996 211.508 25.0794C210.541 26.2755 209.232 26.8665 207.567 26.8665C205.903 26.8665 204.608 26.2755 203.669 25.0935C202.801 24.0101 202.374 22.617 202.374 20.9285C202.374 19.2119 202.815 17.8189 203.669 16.7354C204.622 15.5253 205.917 14.9203 207.567 14.9203C209.104 14.9203 210.37 15.469 211.366 16.5807Z" fill="#12141C"/>
</svg>
