<svg width="1716" height="851" viewBox="0 0 1716 851" fill="none" xmlns="http://www.w3.org/2000/svg">
<path d="M580.495 480.007L733.688 414.226C733.831 418.049 733.902 421.89 733.902 425.748C733.902 593.767 596.638 730.313 427.736 730.313C258.834 730.313 121.57 593.767 121.57 425.748C121.57 257.728 258.834 121.182 427.736 121.182C511.689 121.182 587.67 154.885 642.974 209.404L760.558 158.602C682.335 61.9538 562.26 0 427.736 0C191.572 0 0 190.57 0 425.5C0 660.429 191.572 851 427.736 851C663.9 851 855.472 660.429 855.472 425.5C855.472 404.592 853.93 384.008 850.961 363.871L1021.9 290.471L862.895 839.347L1486.89 571.408L1523.77 656.151L1716 410.283L1403.8 380.444L1438.07 459.195L1050.91 625.439L1210.33 77.5381L534.645 367.673C519.964 359.176 502.897 354.309 484.687 354.309C429.745 354.309 385.206 398.615 385.206 453.27C385.206 507.925 429.745 552.231 484.687 552.231C530.316 552.231 568.77 521.673 580.495 480.007Z" fill="white"/>
</svg>
