<svg width="217" height="42" viewBox="0 0 217 42" fill="none" xmlns="http://www.w3.org/2000/svg">
<g clip-path="url(#clip0_2315_2306)">
<path d="M21.4255 17.6933L27.0797 15.2686C27.085 15.4095 27.0876 15.5511 27.0876 15.6933C27.0876 21.8865 22.0214 26.9197 15.7873 26.9197C9.55331 26.9197 4.48703 21.8865 4.48703 15.6933C4.48703 9.49999 9.55331 4.46681 15.7873 4.46681C18.8859 4.46681 21.6903 5.70913 23.7316 7.71874L28.0715 5.84614C25.1843 2.28365 20.7525 0 15.7873 0C7.07074 0 0 7.0245 0 15.6841C0 24.3437 7.07074 31.3683 15.7873 31.3683C24.5039 31.3683 31.5747 24.3437 31.5747 15.6841C31.5747 14.9135 31.5177 14.1547 31.4082 13.4124L37.7173 10.7069L31.8486 30.9388L54.8798 21.0624L56.2407 24.186L63.3359 15.1232L51.8129 14.0233L53.0777 16.9262L38.7879 23.054L44.6723 2.85809L19.7332 13.5526C19.1914 13.2394 18.5614 13.06 17.8893 13.06C15.8615 13.06 14.2176 14.6932 14.2176 16.7078C14.2176 18.7224 15.8615 20.3555 17.8893 20.3555C19.5735 20.3555 20.9928 19.2291 21.4255 17.6933Z" fill="#12141C"/>
<path d="M96.0282 15.0775H108.599V16.074C108.599 18.3414 108.322 20.3633 107.785 22.1108C107.262 23.7283 106.375 25.2448 105.125 26.6601C102.306 29.8229 98.7021 31.3971 94.3425 31.3971C90.0845 31.3971 86.4369 29.8662 83.3997 26.8189C80.3624 23.7572 78.8511 20.0745 78.8511 15.7707C78.8511 11.3803 80.3915 7.66875 83.4869 4.60703C86.5677 1.5453 90.3316 0 94.7639 0C97.1472 0 99.3561 0.476576 101.42 1.44422C103.396 2.41182 105.329 3.97158 107.233 6.13787L103.963 9.25738C101.478 5.96458 98.4406 4.30374 94.8511 4.30374C91.6395 4.30374 88.9365 5.40134 86.7566 7.61097C84.5768 9.77729 83.4869 12.4924 83.4869 15.7563C83.4869 19.1213 84.7076 21.8942 87.1345 24.0749C89.4015 26.0968 91.872 27.1078 94.5169 27.1078C96.7693 27.1078 98.8039 26.3568 100.606 24.8404C102.408 23.3095 103.411 21.4898 103.614 19.3524H96.0282V15.0775Z" fill="#12141C"/>
<path fill-rule="evenodd" clip-rule="evenodd" d="M129.877 22.3274H116.129C116.245 23.8872 116.754 25.1437 117.67 26.0679C118.571 26.9778 119.733 27.44 121.157 27.44C122.262 27.44 123.177 27.18 123.889 26.6601C124.601 26.1402 125.401 25.1725 126.316 23.7572L130.066 25.8369C129.484 26.8189 128.874 27.6566 128.235 28.3498C127.595 29.043 126.898 29.6207 126.171 30.0684C125.43 30.5161 124.645 30.8483 123.788 31.0505C122.93 31.2527 122.015 31.3682 121.012 31.3682C118.149 31.3682 115.853 30.4583 114.109 28.6242C112.38 26.7756 111.508 24.3349 111.508 21.3021C111.508 18.2837 112.351 15.843 114.037 13.9799C115.737 12.1458 117.975 11.2215 120.779 11.2215C123.599 11.2215 125.837 12.1169 127.479 13.9077C129.106 15.6841 129.92 18.1392 129.92 21.2876L129.877 22.3274ZM125.314 18.7169C124.703 16.3629 123.206 15.1931 120.838 15.1931C120.3 15.1931 119.791 15.2797 119.326 15.4386C118.847 15.5975 118.425 15.843 118.033 16.1462C117.64 16.4495 117.321 16.825 117.045 17.2583C116.769 17.6915 116.565 18.1826 116.42 18.7314H125.314V18.7169Z" fill="#12141C"/>
<path d="M139.339 30.8194V15.8574H142.783V11.7558H139.339V4.7659H134.907V11.7558H133.018V15.8574H134.907V30.8194H139.339Z" fill="#12141C"/>
<path d="M151.879 26.6745H163.286V30.8194H143.087L155.526 15.8574H145.731V11.7558H164.289L151.879 26.6745Z" fill="#12141C"/>
<path d="M171.89 30.8338V11.7558H167.457V30.8338H171.89Z" fill="#12141C"/>
<path d="M167.617 1.81971C167.05 2.38295 166.774 3.04727 166.774 3.81271C166.774 4.6359 167.065 5.31468 167.617 5.87792C168.184 6.44116 168.867 6.71557 169.666 6.71557C170.465 6.71557 171.148 6.44116 171.701 5.87792C172.267 5.31468 172.756 4.6359 172.756 3.84159C172.756 3.04727 172.267 2.36849 171.701 1.81971C171.134 1.25647 170.451 0.982062 169.652 0.982062C168.852 0.982062 168.184 1.25647 167.617 1.81971Z" fill="#12141C"/>
<path d="M177.342 11.7558H181.788V13.5178C183.343 11.9869 185.087 11.2215 187.035 11.2215C189.273 11.2215 191.002 11.9147 192.252 13.3156C193.327 14.4999 193.865 16.4495 193.865 19.1358V30.8194H189.418V20.1611C189.418 18.2837 189.156 16.9839 188.633 16.2618C188.124 15.5252 187.194 15.1642 185.828 15.1642C184.361 15.1642 183.314 15.6408 182.689 16.6084C182.079 17.5616 181.788 19.2224 181.788 21.6053V30.805H177.342V11.7558Z" fill="#12141C"/>
<path fill-rule="evenodd" clip-rule="evenodd" d="M216.913 32.7546C216.971 32.0614 217 31.2671 217 30.3717H216.985V11.7558H212.553V13.9222C210.955 12.1314 208.935 11.2359 206.522 11.2359C203.761 11.2359 201.552 12.2613 199.866 14.3265C198.311 16.2762 197.527 18.6303 197.527 21.4176C197.527 24.2771 198.37 26.6601 200.055 28.5664C201.727 30.4439 203.863 31.3826 206.479 31.3826C208.775 31.3826 210.809 30.4872 212.568 28.6964V31.3537C212.568 35.3109 210.94 37.2895 207.699 37.2895C205.926 37.2895 204.589 36.6973 203.674 35.5131C203.281 34.9932 203.005 34.2711 202.831 33.3323H198.384C198.646 35.8164 199.619 37.766 201.334 39.1814C202.991 40.5533 205.098 41.2321 207.656 41.2321C210.693 41.2321 213.076 40.2356 214.806 38.2571C215.736 37.2317 216.346 35.9896 216.666 34.5599C216.767 34.04 216.855 33.4334 216.913 32.7546ZM211.245 16.8828C212.248 17.9948 212.742 19.4824 212.742 21.331C212.742 23.064 212.291 24.4938 211.39 25.6058C210.402 26.8334 209.065 27.44 207.365 27.44C205.665 27.44 204.342 26.8334 203.383 25.6202C202.497 24.5082 202.061 23.0784 202.061 21.3454C202.061 19.5835 202.511 18.1537 203.383 17.0416C204.357 15.7996 205.679 15.1786 207.365 15.1786C208.935 15.1786 210.228 15.7419 211.245 16.8828Z" fill="#12141C"/>
</g>
<defs>
<clipPath id="clip0_2315_2306">
<rect width="217" height="41.2321" fill="white"/>
</clipPath>
</defs>
</svg>
