<svg width="97" height="40" viewBox="0 0 97 40" fill="none" xmlns="http://www.w3.org/2000/svg">
<rect width="97" height="40" rx="20" fill="white"/>
<path d="M26.368 26.16C25.5467 26.16 24.784 26.016 24.08 25.728C23.376 25.4293 22.7573 25.0187 22.224 24.496C21.7013 23.9627 21.296 23.344 21.008 22.64C20.7307 21.936 20.592 21.1787 20.592 20.368C20.592 19.5573 20.7307 18.8 21.008 18.096C21.296 17.392 21.7013 16.7787 22.224 16.256C22.7573 15.7333 23.3707 15.3227 24.064 15.024C24.768 14.7253 25.536 14.576 26.368 14.576C27.264 14.576 28.0533 14.7253 28.736 15.024C29.4187 15.312 30.0213 15.712 30.544 16.224L29.072 17.696C28.7627 17.3547 28.384 17.088 27.936 16.896C27.488 16.704 26.9653 16.608 26.368 16.608C25.8453 16.608 25.3653 16.6987 24.928 16.88C24.5013 17.0507 24.128 17.3067 23.808 17.648C23.488 17.9787 23.2427 18.3787 23.072 18.848C22.9013 19.3067 22.816 19.8133 22.816 20.368C22.816 20.9333 22.9013 21.4453 23.072 21.904C23.2427 22.3627 23.488 22.7627 23.808 23.104C24.128 23.4347 24.5013 23.6907 24.928 23.872C25.3653 24.0533 25.8453 24.144 26.368 24.144C26.9973 24.144 27.536 24.048 27.984 23.856C28.4427 23.664 28.8267 23.392 29.136 23.04L30.608 24.512C30.0853 25.0347 29.4773 25.44 28.784 25.728C28.0907 26.016 27.2853 26.16 26.368 26.16ZM37.0968 26V21.568C37.0968 21.1093 36.9528 20.736 36.6648 20.448C36.3768 20.16 36.0034 20.016 35.5448 20.016C35.2461 20.016 34.9794 20.08 34.7448 20.208C34.5101 20.336 34.3234 20.5173 34.1848 20.752C34.0568 20.9867 33.9928 21.2587 33.9928 21.568L33.1768 21.152C33.1768 20.544 33.3048 20.016 33.5608 19.568C33.8168 19.1093 34.1688 18.752 34.6168 18.496C35.0754 18.24 35.5981 18.112 36.1848 18.112C36.7714 18.112 37.2888 18.24 37.7368 18.496C38.1954 18.752 38.5528 19.104 38.8088 19.552C39.0648 20 39.1927 20.5173 39.1927 21.104V26H37.0968ZM31.8968 26V14.432H33.9928V26H31.8968ZM44.1131 26.16C43.4091 26.16 42.7745 25.984 42.2091 25.632C41.6438 25.28 41.2011 24.8 40.8811 24.192C40.5611 23.584 40.4011 22.9013 40.4011 22.144C40.4011 21.376 40.5611 20.688 40.8811 20.08C41.2011 19.472 41.6438 18.992 42.2091 18.64C42.7745 18.288 43.4091 18.112 44.1131 18.112C44.6678 18.112 45.1638 18.224 45.6011 18.448C46.0385 18.672 46.3851 18.9867 46.6411 19.392C46.9078 19.7867 47.0518 20.2347 47.0731 20.736V23.52C47.0518 24.032 46.9078 24.4853 46.6411 24.88C46.3851 25.2747 46.0385 25.5893 45.6011 25.824C45.1638 26.048 44.6678 26.16 44.1131 26.16ZM44.4971 24.224C45.0838 24.224 45.5585 24.032 45.9211 23.648C46.2838 23.2533 46.4651 22.7467 46.4651 22.128C46.4651 21.7227 46.3798 21.3653 46.2091 21.056C46.0491 20.736 45.8198 20.4907 45.5211 20.32C45.2331 20.1387 44.8918 20.048 44.4971 20.048C44.1131 20.048 43.7718 20.1387 43.4731 20.32C43.1851 20.4907 42.9558 20.736 42.7851 21.056C42.6251 21.3653 42.5451 21.7227 42.5451 22.128C42.5451 22.544 42.6251 22.912 42.7851 23.232C42.9558 23.5413 43.1851 23.7867 43.4731 23.968C43.7718 24.1387 44.1131 24.224 44.4971 24.224ZM46.3531 26V23.92L46.6891 22.032L46.3531 20.176V18.272H48.4331V26H46.3531ZM55.4874 26V21.568C55.4874 21.1093 55.3434 20.736 55.0554 20.448C54.7674 20.16 54.394 20.016 53.9354 20.016C53.6367 20.016 53.37 20.08 53.1354 20.208C52.9007 20.336 52.714 20.5173 52.5754 20.752C52.4474 20.9867 52.3834 21.2587 52.3834 21.568L51.5674 21.152C51.5674 20.544 51.6954 20.016 51.9514 19.568C52.218 19.1093 52.5807 18.752 53.0394 18.496C53.5087 18.24 54.0367 18.112 54.6234 18.112C55.1887 18.112 55.6954 18.256 56.1434 18.544C56.5914 18.8213 56.9434 19.1893 57.1994 19.648C57.4554 20.096 57.5834 20.5813 57.5834 21.104V26H55.4874ZM50.2874 26V18.272H52.3834V26H50.2874ZM62.5038 29.424C61.6824 29.424 60.9571 29.2747 60.3278 28.976C59.6984 28.688 59.1971 28.2773 58.8238 27.744L60.1518 26.416C60.4504 26.768 60.7811 27.0347 61.1438 27.216C61.5171 27.408 61.9651 27.504 62.4878 27.504C63.1384 27.504 63.6504 27.3387 64.0238 27.008C64.4078 26.6773 64.5998 26.2187 64.5998 25.632V23.696L64.9518 22L64.6158 20.304V18.272H66.6958V25.6C66.6958 26.368 66.5144 27.0347 66.1518 27.6C65.7998 28.176 65.3091 28.624 64.6798 28.944C64.0504 29.264 63.3251 29.424 62.5038 29.424ZM62.4078 25.792C61.7144 25.792 61.0904 25.6267 60.5358 25.296C59.9811 24.9547 59.5438 24.4907 59.2238 23.904C58.9144 23.3173 58.7598 22.6613 58.7598 21.936C58.7598 21.2107 58.9144 20.56 59.2238 19.984C59.5438 19.408 59.9811 18.9547 60.5358 18.624C61.0904 18.2827 61.7144 18.112 62.4078 18.112C62.9838 18.112 63.4904 18.224 63.9278 18.448C64.3758 18.672 64.7278 18.9813 64.9838 19.376C65.2398 19.76 65.3784 20.2133 65.3998 20.736V23.168C65.3784 23.68 65.2344 24.1387 64.9678 24.544C64.7118 24.9387 64.3598 25.248 63.9118 25.472C63.4744 25.6853 62.9731 25.792 62.4078 25.792ZM62.8238 23.888C63.2078 23.888 63.5384 23.808 63.8158 23.648C64.1038 23.4773 64.3278 23.248 64.4878 22.96C64.6478 22.6613 64.7278 22.3253 64.7278 21.952C64.7278 21.568 64.6478 21.232 64.4878 20.944C64.3278 20.656 64.1038 20.432 63.8158 20.272C63.5384 20.1013 63.2078 20.016 62.8238 20.016C62.4398 20.016 62.1038 20.1013 61.8158 20.272C61.5278 20.432 61.3038 20.6613 61.1438 20.96C60.9838 21.248 60.9038 21.5787 60.9038 21.952C60.9038 22.3147 60.9838 22.6453 61.1438 22.944C61.3038 23.232 61.5278 23.4613 61.8158 23.632C62.1038 23.8027 62.4398 23.888 62.8238 23.888ZM72.2334 26.16C71.4227 26.16 70.7027 25.9893 70.0734 25.648C69.444 25.296 68.9427 24.816 68.5694 24.208C68.2067 23.6 68.0254 22.9067 68.0254 22.128C68.0254 21.36 68.2014 20.6773 68.5534 20.08C68.916 19.472 69.4067 18.992 70.0254 18.64C70.644 18.2773 71.332 18.096 72.0894 18.096C72.836 18.096 73.492 18.2667 74.0574 18.608C74.6334 18.9387 75.0814 19.3973 75.4014 19.984C75.732 20.56 75.8974 21.216 75.8974 21.952C75.8974 22.0907 75.8867 22.2347 75.8654 22.384C75.8547 22.5227 75.828 22.6827 75.7854 22.864L69.2894 22.88V21.312L74.8094 21.296L73.9614 21.952C73.94 21.4933 73.8547 21.1093 73.7054 20.8C73.5667 20.4907 73.3587 20.256 73.0814 20.096C72.8147 19.9253 72.484 19.84 72.0894 19.84C71.6734 19.84 71.3107 19.936 71.0014 20.128C70.692 20.3093 70.452 20.5707 70.2814 20.912C70.1214 21.2427 70.0414 21.6373 70.0414 22.096C70.0414 22.5653 70.1267 22.976 70.2974 23.328C70.4787 23.6693 70.7347 23.936 71.0654 24.128C71.396 24.3093 71.78 24.4 72.2174 24.4C72.612 24.4 72.9694 24.336 73.2894 24.208C73.6094 24.0693 73.8867 23.8667 74.1214 23.6L75.3534 24.832C74.98 25.2693 74.5214 25.6 73.9774 25.824C73.444 26.048 72.8627 26.16 72.2334 26.16Z" fill="#FF6B00"/>
</svg>
