<svg width="106" height="40" viewBox="0 0 106 40" fill="none" xmlns="http://www.w3.org/2000/svg">
<rect width="106" height="40" rx="20" fill="white"/>
<path d="M24.704 26.24C23.8133 26.24 23.0027 26.1333 22.272 25.92C21.5467 25.7013 20.904 25.3813 20.344 24.96L21.392 23.104C21.7707 23.4347 22.2293 23.696 22.768 23.888C23.3067 24.08 23.8667 24.176 24.448 24.176C24.928 24.176 25.3413 24.112 25.688 23.984C26.04 23.8507 26.312 23.6693 26.504 23.44C26.696 23.2053 26.792 22.9333 26.792 22.624C26.792 22.1493 26.624 21.7893 26.288 21.544C25.9573 21.2987 25.4427 21.176 24.744 21.176H22.504V19.344H24.56C24.9547 19.344 25.2933 19.2907 25.576 19.184C25.8587 19.0773 26.0773 18.9227 26.232 18.72C26.3867 18.5173 26.464 18.2747 26.464 17.992C26.464 17.7147 26.3867 17.4827 26.232 17.296C26.0827 17.104 25.8587 16.96 25.56 16.864C25.2613 16.7627 24.8933 16.712 24.456 16.712C23.9493 16.712 23.456 16.7973 22.976 16.968C22.496 17.1387 22.0907 17.3733 21.76 17.672L20.68 15.936C21.176 15.4987 21.7787 15.16 22.488 14.92C23.2027 14.68 23.9653 14.56 24.776 14.56C25.6133 14.56 26.3333 14.68 26.936 14.92C27.5387 15.1547 28.0027 15.4933 28.328 15.936C28.6533 16.3787 28.816 16.9093 28.816 17.528C28.816 17.864 28.744 18.1893 28.6 18.504C28.456 18.8133 28.2613 19.0933 28.016 19.344C27.7707 19.5947 27.5013 19.7893 27.208 19.928C27.832 20.1413 28.328 20.4827 28.696 20.952C29.0693 21.4213 29.2533 22.0053 29.248 22.704C29.248 23.3813 29.0587 23.9867 28.68 24.52C28.3013 25.0533 27.7707 25.4747 27.088 25.784C26.4053 26.088 25.6107 26.24 24.704 26.24ZM31.1048 26V17.92H33.0968H33.1448L36.5368 22.992L35.5368 23.008L38.7368 17.92H40.7768V26H38.7128L38.7368 20.52L39.1927 20.704L36.6488 24.552H35.2408L32.5528 20.696L32.9928 20.52L33.0328 26H31.1048ZM43.0423 26V17.92H45.3783V26H43.0423ZM44.2103 16.64C43.8209 16.64 43.4849 16.52 43.2023 16.28C42.9196 16.0347 42.7783 15.7093 42.7783 15.304C42.7783 14.8933 42.9196 14.568 43.2023 14.328C43.4849 14.0827 43.8209 13.96 44.2103 13.96C44.5996 13.96 44.9356 14.0827 45.2183 14.328C45.5009 14.568 45.6423 14.8933 45.6423 15.304C45.6423 15.7093 45.5009 16.0347 45.2183 16.28C44.9356 16.52 44.5996 16.64 44.2103 16.64ZM47.6516 26V17.92H49.9876V20.896H53.3956V17.92H55.7316V26H53.3956V22.768H49.9876V26H47.6516ZM58.011 26V17.92H60.243V22.688L64.027 17.92H66.107V26H63.867V21.168L60.075 26H58.011ZM70.058 26V19.792H67.618V17.92H74.826V19.792H72.394V26H70.058ZM76.3235 26V17.92H78.5555V22.688L82.3395 17.92H84.4195V26H82.1795V21.168L78.3875 26H76.3235Z" fill="#FF6B00"/>
</svg>
