<svg width="101" height="40" viewBox="0 0 101 40" fill="none" xmlns="http://www.w3.org/2000/svg">
<rect width="101" height="40" rx="20" fill="white"/>
<path d="M26.616 26.24C25.7627 26.24 24.9733 26.0933 24.248 25.8C23.5227 25.5013 22.8933 25.088 22.36 24.56C21.8267 24.032 21.4107 23.4133 21.112 22.704C20.8187 21.9947 20.672 21.2267 20.672 20.4C20.672 19.568 20.8187 18.7973 21.112 18.088C21.4107 17.3787 21.8267 16.76 22.36 16.232C22.8933 15.704 23.5227 15.2933 24.248 15C24.9733 14.7067 25.7627 14.56 26.616 14.56C27.4693 14.56 28.256 14.7093 28.976 15.008C29.7013 15.3067 30.3307 15.7227 30.864 16.256C31.4027 16.7893 31.8213 17.4107 32.12 18.12C32.4187 18.824 32.568 19.584 32.568 20.4C32.568 21.2267 32.4187 21.9947 32.12 22.704C31.8213 23.4133 31.4027 24.032 30.864 24.56C30.3307 25.088 29.7013 25.5013 28.976 25.8C28.256 26.0933 27.4693 26.24 26.616 26.24ZM26.616 24.016C27.112 24.016 27.5707 23.9307 27.992 23.76C28.4133 23.5893 28.7813 23.3467 29.096 23.032C29.4107 22.712 29.6533 22.3307 29.824 21.888C30 21.4453 30.088 20.9493 30.088 20.4C30.088 19.6693 29.936 19.0347 29.632 18.496C29.328 17.952 28.9147 17.5307 28.392 17.232C27.8693 16.9333 27.2773 16.784 26.616 16.784C26.1253 16.784 25.6667 16.8693 25.24 17.04C24.8187 17.2107 24.4507 17.4533 24.136 17.768C23.8267 18.0827 23.584 18.464 23.408 18.912C23.2373 19.3547 23.152 19.8507 23.152 20.4C23.152 21.1307 23.304 21.768 23.608 22.312C23.912 22.8507 24.3253 23.2693 24.848 23.568C25.3707 23.8667 25.96 24.016 26.616 24.016ZM38.4184 26.24C37.741 26.24 37.125 26.1227 36.5704 25.888C36.0157 25.648 35.5384 25.3067 35.1384 24.864C34.7437 24.4213 34.4397 23.8827 34.2264 23.248C34.013 22.608 33.9064 21.888 33.9064 21.088C33.9064 20.2027 33.981 19.4133 34.1304 18.72C34.285 18.0267 34.5224 17.424 34.8424 16.912C35.1624 16.4 35.5784 15.984 36.0904 15.664C36.6024 15.3387 37.2184 15.1067 37.9384 14.968L41.8104 14.24L42.1624 16.184L38.3944 16.848C37.845 16.9493 37.4104 17.112 37.0904 17.336C36.7704 17.56 36.533 17.8507 36.3784 18.208C36.2237 18.56 36.1224 18.9893 36.0744 19.496C36.4104 19.1333 36.8077 18.848 37.2664 18.64C37.7304 18.4267 38.2557 18.32 38.8424 18.32C39.5997 18.32 40.269 18.4907 40.8504 18.832C41.4317 19.1733 41.8877 19.6347 42.2184 20.216C42.549 20.792 42.7144 21.4293 42.7144 22.128C42.7144 22.6987 42.6104 23.232 42.4024 23.728C42.1997 24.224 41.909 24.6613 41.5304 25.04C41.1517 25.4187 40.701 25.7147 40.1784 25.928C39.6557 26.136 39.069 26.24 38.4184 26.24ZM38.3944 24.216C38.773 24.216 39.1144 24.1333 39.4184 23.968C39.7277 23.7973 39.9704 23.56 40.1464 23.256C40.3224 22.9467 40.4104 22.5813 40.4104 22.16C40.4104 21.7387 40.3224 21.3733 40.1464 21.064C39.9704 20.7547 39.7304 20.5173 39.4264 20.352C39.1224 20.1867 38.7784 20.104 38.3944 20.104C38.005 20.104 37.6557 20.1867 37.3464 20.352C37.0424 20.5173 36.8024 20.7547 36.6264 21.064C36.4504 21.3733 36.3624 21.7387 36.3624 22.16C36.3624 22.5813 36.4504 22.9467 36.6264 23.256C36.8077 23.56 37.0504 23.7973 37.3544 23.968C37.6637 24.1333 38.0104 24.216 38.3944 24.216ZM44.4016 29.36V17.92H46.4336V18.912C46.743 18.544 47.135 18.248 47.6096 18.024C48.0896 17.7947 48.6576 17.68 49.3136 17.68C50.0923 17.68 50.7856 17.8613 51.3936 18.224C52.0016 18.5813 52.479 19.0827 52.8256 19.728C53.1723 20.3733 53.3456 21.1173 53.3456 21.96C53.3456 22.5627 53.2443 23.1227 53.0416 23.64C52.8443 24.1573 52.5643 24.6107 52.2016 25C51.839 25.3893 51.4096 25.6933 50.9136 25.912C50.4176 26.1307 49.871 26.24 49.2736 26.24C48.7456 26.24 48.2683 26.152 47.8416 25.976C47.4203 25.8 47.0496 25.552 46.7296 25.232V29.36H44.4016ZM48.8816 24.216C49.2976 24.216 49.6683 24.1253 49.9936 23.944C50.3243 23.7573 50.5803 23.496 50.7616 23.16C50.9483 22.824 51.0416 22.424 51.0416 21.96C51.0416 21.496 50.9483 21.096 50.7616 20.76C50.575 20.424 50.319 20.1653 49.9936 19.984C49.6683 19.7973 49.2976 19.704 48.8816 19.704C48.471 19.704 48.103 19.7973 47.7776 19.984C47.4523 20.1653 47.1963 20.424 47.0096 20.76C46.823 21.096 46.7296 21.496 46.7296 21.96C46.7296 22.424 46.8203 22.824 47.0016 23.16C47.1883 23.496 47.4443 23.7573 47.7696 23.944C48.095 24.1253 48.4656 24.216 48.8816 24.216ZM57.2045 26.24C56.6605 26.24 56.1752 26.136 55.7485 25.928C55.3218 25.72 54.9858 25.424 54.7405 25.04C54.4952 24.6507 54.3725 24.1867 54.3725 23.648C54.3725 23.1893 54.4872 22.7813 54.7165 22.424C54.9458 22.0667 55.2925 21.7733 55.7565 21.544C56.2258 21.3093 56.8178 21.152 57.5325 21.072C58.2525 20.9867 59.1005 20.992 60.0765 21.088L60.1005 22.576C59.5192 22.48 59.0045 22.4347 58.5565 22.44C58.1138 22.4453 57.7405 22.4907 57.4365 22.576C57.1378 22.6613 56.9112 22.7867 56.7565 22.952C56.6018 23.112 56.5245 23.3067 56.5245 23.536C56.5245 23.8507 56.6418 24.0933 56.8765 24.264C57.1112 24.4293 57.4285 24.512 57.8285 24.512C58.1752 24.512 58.4872 24.4507 58.7645 24.328C59.0418 24.2053 59.2632 24.0267 59.4285 23.792C59.5938 23.5573 59.6765 23.272 59.6765 22.936V21C59.6765 20.6853 59.6098 20.4107 59.4765 20.176C59.3485 19.936 59.1458 19.752 58.8685 19.624C58.5912 19.4907 58.2285 19.424 57.7805 19.424C57.3645 19.424 56.9485 19.488 56.5325 19.616C56.1218 19.7387 55.7458 19.928 55.4045 20.184L54.7885 18.552C55.3058 18.2213 55.8552 17.9813 56.4365 17.832C57.0178 17.6773 57.5858 17.6 58.1405 17.6C58.8978 17.6 59.5592 17.72 60.1245 17.96C60.6898 18.2 61.1272 18.5707 61.4365 19.072C61.7512 19.568 61.9085 20.2 61.9085 20.968V26H59.8765V25.112C59.6098 25.4747 59.2445 25.7547 58.7805 25.952C58.3165 26.144 57.7912 26.24 57.2045 26.24ZM65.4799 26V19.792H63.0399V17.92H70.2479V19.792H67.8159V26H65.4799ZM71.7454 26V17.92H73.9774V22.688L77.7614 17.92H79.8414V26H77.6014V21.168L73.8094 26H71.7454Z" fill="#FF6B00"/>
</svg>
