<svg width="85" height="40" viewBox="0 0 85 40" fill="none" xmlns="http://www.w3.org/2000/svg">
<rect width="85" height="40" rx="20" fill="white"/>
<path d="M24.416 26.16C23.5093 26.16 22.7307 26.0053 22.08 25.696C21.44 25.3867 20.8587 24.9227 20.336 24.304L21.776 22.864C22.1067 23.3013 22.4907 23.6427 22.928 23.888C23.3653 24.1227 23.8987 24.24 24.528 24.24C25.0933 24.24 25.5413 24.128 25.872 23.904C26.2133 23.68 26.384 23.3707 26.384 22.976C26.384 22.6347 26.288 22.3573 26.096 22.144C25.904 21.9307 25.648 21.7493 25.328 21.6C25.0187 21.4507 24.672 21.3173 24.288 21.2C23.9147 21.072 23.536 20.928 23.152 20.768C22.7787 20.608 22.432 20.4107 22.112 20.176C21.8027 19.9307 21.552 19.6213 21.36 19.248C21.168 18.864 21.072 18.384 21.072 17.808C21.072 17.1253 21.2373 16.544 21.568 16.064C21.8987 15.584 22.352 15.216 22.928 14.96C23.504 14.704 24.1547 14.576 24.88 14.576C25.648 14.576 26.3413 14.72 26.96 15.008C27.5787 15.296 28.0853 15.6693 28.48 16.128L27.04 17.568C26.7093 17.2053 26.368 16.9387 26.016 16.768C25.6747 16.5973 25.2853 16.512 24.848 16.512C24.3467 16.512 23.952 16.608 23.664 16.8C23.376 16.992 23.232 17.2693 23.232 17.632C23.232 17.9413 23.328 18.192 23.52 18.384C23.712 18.576 23.9627 18.7413 24.272 18.88C24.592 19.0187 24.9387 19.152 25.312 19.28C25.696 19.408 26.0747 19.552 26.448 19.712C26.832 19.872 27.1787 20.08 27.488 20.336C27.808 20.592 28.064 20.9227 28.256 21.328C28.448 21.7227 28.544 22.2133 28.544 22.8C28.544 23.8453 28.176 24.6667 27.44 25.264C26.704 25.8613 25.696 26.16 24.416 26.16ZM33.6709 26.16C32.8602 26.16 32.1402 25.9893 31.5109 25.648C30.8815 25.296 30.3802 24.816 30.0069 24.208C29.6442 23.6 29.4629 22.9067 29.4629 22.128C29.4629 21.36 29.6389 20.6773 29.9909 20.08C30.3535 19.472 30.8442 18.992 31.4629 18.64C32.0815 18.2773 32.7695 18.096 33.5269 18.096C34.2735 18.096 34.9295 18.2667 35.4949 18.608C36.0709 18.9387 36.5189 19.3973 36.8389 19.984C37.1695 20.56 37.3349 21.216 37.3349 21.952C37.3349 22.0907 37.3242 22.2347 37.3029 22.384C37.2922 22.5227 37.2655 22.6827 37.2229 22.864L30.7269 22.88V21.312L36.2469 21.296L35.3989 21.952C35.3775 21.4933 35.2922 21.1093 35.1429 20.8C35.0042 20.4907 34.7962 20.256 34.5189 20.096C34.2522 19.9253 33.9215 19.84 33.5269 19.84C33.1109 19.84 32.7482 19.936 32.4389 20.128C32.1295 20.3093 31.8895 20.5707 31.7189 20.912C31.5589 21.2427 31.4789 21.6373 31.4789 22.096C31.4789 22.5653 31.5642 22.976 31.7349 23.328C31.9162 23.6693 32.1722 23.936 32.5029 24.128C32.8335 24.3093 33.2175 24.4 33.6549 24.4C34.0495 24.4 34.4069 24.336 34.7269 24.208C35.0469 24.0693 35.3242 23.8667 35.5589 23.6L36.7909 24.832C36.4175 25.2693 35.9589 25.6 35.4149 25.824C34.8815 26.048 34.3002 26.16 33.6709 26.16ZM38.6311 26V14.432H40.7271V26H38.6311ZM46.2803 26.16C45.4696 26.16 44.7496 25.9893 44.1203 25.648C43.4909 25.296 42.9896 24.816 42.6163 24.208C42.2536 23.6 42.0723 22.9067 42.0723 22.128C42.0723 21.36 42.2483 20.6773 42.6003 20.08C42.9629 19.472 43.4536 18.992 44.0723 18.64C44.6909 18.2773 45.3789 18.096 46.1363 18.096C46.8829 18.096 47.5389 18.2667 48.1043 18.608C48.6803 18.9387 49.1283 19.3973 49.4483 19.984C49.7789 20.56 49.9443 21.216 49.9443 21.952C49.9443 22.0907 49.9336 22.2347 49.9123 22.384C49.9016 22.5227 49.8749 22.6827 49.8323 22.864L43.3363 22.88V21.312L48.8563 21.296L48.0083 21.952C47.9869 21.4933 47.9016 21.1093 47.7523 20.8C47.6136 20.4907 47.4056 20.256 47.1283 20.096C46.8616 19.9253 46.5309 19.84 46.1363 19.84C45.7203 19.84 45.3576 19.936 45.0483 20.128C44.7389 20.3093 44.4989 20.5707 44.3283 20.912C44.1683 21.2427 44.0883 21.6373 44.0883 22.096C44.0883 22.5653 44.1736 22.976 44.3443 23.328C44.5256 23.6693 44.7816 23.936 45.1123 24.128C45.4429 24.3093 45.8269 24.4 46.2643 24.4C46.6589 24.4 47.0163 24.336 47.3363 24.208C47.6563 24.0693 47.9336 23.8667 48.1683 23.6L49.4003 24.832C49.0269 25.2693 48.5683 25.6 48.0243 25.824C47.4909 26.048 46.9096 26.16 46.2803 26.16ZM54.8885 26.16C54.0992 26.16 53.3898 25.984 52.7605 25.632C52.1312 25.28 51.6352 24.8 51.2725 24.192C50.9098 23.584 50.7285 22.9013 50.7285 22.144C50.7285 21.376 50.9098 20.688 51.2725 20.08C51.6352 19.472 52.1312 18.992 52.7605 18.64C53.4005 18.2773 54.1098 18.096 54.8885 18.096C55.4965 18.096 56.0565 18.208 56.5685 18.432C57.0805 18.656 57.5232 18.976 57.8965 19.392L56.5525 20.752C56.3498 20.528 56.1045 20.3573 55.8165 20.24C55.5392 20.1227 55.2298 20.064 54.8885 20.064C54.5045 20.064 54.1578 20.1547 53.8485 20.336C53.5498 20.5067 53.3098 20.7467 53.1285 21.056C52.9578 21.3547 52.8725 21.712 52.8725 22.128C52.8725 22.5333 52.9578 22.896 53.1285 23.216C53.3098 23.5253 53.5498 23.7707 53.8485 23.952C54.1578 24.1227 54.5045 24.208 54.8885 24.208C55.2405 24.208 55.5552 24.1493 55.8325 24.032C56.1205 23.904 56.3658 23.7227 56.5685 23.488L57.9285 24.848C57.5338 25.2747 57.0805 25.6 56.5685 25.824C56.0565 26.048 55.4965 26.16 54.8885 26.16ZM60.1265 26V15.056H62.2225V26H60.1265ZM58.3185 20.112V18.272H64.0305V20.112H58.3185Z" fill="#FF6B00"/>
</svg>
