<svg width="40" height="32" viewBox="0 0 40 32" fill="none" xmlns="http://www.w3.org/2000/svg">
<path d="M35.2113 5.98997C35.0593 5.39397 34.6273 4.94398 34.1333 4.80598C33.2593 4.55998 28.9994 3.99998 19.9994 3.99998C10.9995 3.99998 6.74348 4.55998 5.86148 4.80598C5.37349 4.94198 4.94149 5.39197 4.78749 5.98997C4.56949 6.83797 3.99949 10.3919 3.99949 15.9999C3.99949 21.6079 4.56949 25.1599 4.78749 26.0119C4.93949 26.6059 5.37149 27.0559 5.86348 27.1919C6.74348 27.4399 10.9995 27.9999 19.9994 27.9999C28.9994 27.9999 33.2573 27.4399 34.1373 27.1939C34.6253 27.0579 35.0573 26.6079 35.2113 26.0099C35.4293 25.1619 35.9993 21.5999 35.9993 15.9999C35.9993 10.3999 35.4293 6.83997 35.2113 5.98997ZM39.0853 4.99598C39.9993 8.55996 39.9993 15.9999 39.9993 15.9999C39.9993 15.9999 39.9993 23.4399 39.0853 27.0039C38.5773 28.9739 37.0913 30.5239 35.2093 31.0478C31.7914 31.9998 19.9994 31.9998 19.9994 31.9998C19.9994 31.9998 8.21347 31.9998 4.78949 31.0478C2.8995 30.5159 1.4155 28.9679 0.913507 27.0039C-0.000488222 23.4399 -0.000488281 15.9999 -0.000488281 15.9999C-0.000488281 15.9999 -0.000488222 8.55996 0.913507 4.99598C1.4215 3.02599 2.9075 1.47599 4.78949 0.951995C8.21347 -3.57626e-07 19.9994 0 19.9994 0C19.9994 0 31.7914 -3.57626e-07 35.2093 0.951995C37.0993 1.48399 38.5833 3.03199 39.0853 4.99598ZM15.9994 22.9999V8.99996L27.9994 15.9999L15.9994 22.9999Z" fill="#FF6B00"/>
</svg>
